<svg xmlns="http://www.w3.org/2000/svg" width="262" height="170" viewBox="0 0 262 170">
    <g fill="none" fill-rule="evenodd">
        <path fill="#DBE8F3" fill-rule="nonzero" d="M242.929 154.143v-53H224V139h-6.357V86.571h-8.072V71.286h-92.285V46.429h-2.643v-2.715H112V41 30.429l5.071-1.858c.5 0 .858-.428.858-.857 0-.5-.429-.857-.858-.857-1.857 0-3.642-.357-5.285-.857-1-.357-2-.786-2.857-1.286l4.857-1.857c.5 0 .857-.428.857-.857 0-.5-.429-.857-.857-.857-7.572 0-13.857-3.714-13.857-8.286V9.5c0-.571-.715-.714-1-.214a93.016 93.016 0 0 1-2 3.643H71.5c-.643-1.215-1.714-3.215-2-3.643-.214-.429-1-.286-1 .214v3.357c0 1.429-.643 2.786-1.714 3.929-2.357 2.571-7 4.357-12.143 4.357-.143 0-.286.071-.429.143-.285.143-.428.428-.428.785 0 .429.285.786.714.858h.143l4.857 1.857c-.857.5-1.857.928-2.857 1.285-.072 0-.143.072-.214.072-.143.071-.286.071-.358.143-.142.071-.357.071-.5.143-.142 0-.285.071-.357.071-.214.071-.357.071-.571.143-.143 0-.286.071-.357.071-.215 0-.357.072-.572.072-.143 0-.214.071-.357.071-.214 0-.428.072-.643.072h-1.357c-.214 0-.428.071-.643.214v.071a.811.811 0 0 0-.214.572c0 .357.214.714.571.857.072.071.215.071.358.071l5.071 1.857v13.286h-2.929v2.714H50.93v67H29.857v40.5c-8.857 0-14.857 15.5-28.357 15.5h259.714v-.071c-10.428.143-10.285-15.357-18.285-15.357zm-140.643-116.5c.785-.643 2.214-1.072 3.857-1.072 1.643 0 3.071.429 3.857 1.072V41h-7.714v-3.357zm-9.643 0c.786-.643 2.214-1.072 3.857-1.072 1.643 0 3.071.429 3.857 1.072V41h-7.714v-3.357zm-15.143 0c1.143-.643 4.214-1.072 6.643-1.072 2.428 0 5.428.429 6.643 1.072V41H77.57c-.071 0-.071-1.643-.071-3.357zm-9.643 0c.786-.643 2.214-1.072 3.857-1.072 1.643 0 3.072.429 3.857 1.072V41h-7.714v-3.357zm-9.643 0C59 37 60.43 36.57 62.071 36.57c1.643 0 3.072.429 3.858 1.072V41h-7.715v-3.357z"/>
        <path fill="#DBE8F3" d="M42 37.929h-4.143a5.22 5.22 0 0 0 .572-2.358c0-3-2.429-5.428-5.429-5.428-2.857 0-5.143 2.143-5.429 4.928-.428-.285-1-.428-1.571-.428-.786 0-1.357.143-2 .714-1 .857-2.071 1.572-3 1.572A2.073 2.073 0 0 0 18.929 39c0 1.143.928 2.071 2.071 2.071h20.929c.857 0 1.571-.714 1.571-1.571 0-.929-.714-1.571-1.5-1.571z"/>
        <path fill="#FFF" d="M133.643 30.643h5.214v7.428h-5.714z"/>
        <path fill="#9A6728" d="M133.643 30.643c-4.786 0-5.643 3.428-9.286 4.786-1.5.571-2.428 2.214-2 3.714.643 2.5 12.072.714 12.072.714l-.786-9.214z"/>
        <path fill="#000F46" d="M137.786 29.357h48.071v15.857h-48.071z"/>
        <path fill="#A1C5E0" d="M143.429 110.429h41.857v59.214h-41.857z"/>
        <circle cx="62.357" cy="82.571" r="33.857" fill="#A1C5E0"/>
        <path fill="#9A6728" d="M201.857 32.929l.214-5.215 8.286-5.5c2-1.714 4.357.715 3.286 3-.929 1.929-2.572 5.715-2.572 5.715l-9.214 2z"/>
        <path fill="#000F46" d="M212.286 26.214l-6 2.072c-.929.357-2-.143-2.286-1.143l-4.357-12.572c-.357-.928.143-2 1.143-2.285l6-2.072c.928-.357 2 .143 2.285 1.143l4.358 12.572c.285.928-.215 2-1.143 2.285z"/>
        <path fill="#005C84" d="M199.954 15.682l9.38-3.254 3.652 10.528-9.38 3.254z"/>
        <path fill="#9A6728" d="M204.286 25.143c0-.786-.643-1.429-1.429-1.429s-1.428.643-1.428 1.429c0 .286.428 7.786.428 7.786s1.143-1.5 1.929-1.5c.785 0 .428-1.358.428-2.143.072-.286.072-3.857.072-4.143z"/>
        <path fill="#9A6728" d="M205.786 24.214c.571-.571.571-1.428 0-2-.572-.571-1.429-.571-2 0l-1.929 1.929c-.5.5-.571 1.428 0 2 .572.571 1.429.571 2 0 .214-.143 1.714-1.714 1.929-1.929z"/>
        <path fill="#000F46" d="M185.786 25.5h.643V13.857h-7v8.429c0 1.857-1.072 2.643-2.858 2.643 0 2.071 1.643 3.071 3.286 3.071h7.786l-1.857-2.5zM217.786 54.786c-.286-.786-5.715-19.857-5.715-19.857l-3.5.785c-2.357-1.428-6.714-2.785-6.714-2.785l-.071-1.5-4.929-2.072h-11s-12.143 8.143-11.071 15c1.643 10.143 2.643 16.786 3.857 24.714.143.786.214 1.5.214 2.215H205V69.07c.286-2 .571-3.857.786-5.714h6.143c4.142 0 7.071-3.714 5.857-8.571z"/>
        <path fill="#FFF" d="M191.357 32.071l-5.5 1.643v9.5c0 2.715 2.786 6 5.5 8.786 2.714-2.714 5.5-6.071 5.5-8.786v-9.5l-5.5-1.643z"/>
        <path fill="#DBE8F3" d="M191.357 28.571v7.215l2.286 2.285a3.2 3.2 0 0 0 3.214-3.214v-6.286h-5.5zM191.357 28.571v7.215l-2.286 2.285a3.2 3.2 0 0 1-3.214-3.214v-6.286h5.5z"/>
        <g transform="translate(181.429)">
            <path fill="#9A6728" d="M19.643 9.786c0-5.357-4.357-9.715-9.714-9.715C4.57.071.214 4.43.214 9.786v11.071l4.215 8.5c0 3.072 2.428 5.5 5.5 5.5 3.071 0 5.5-2.428 5.5-5.5l4.214-8.5V9.786z"/>
            <path fill="#734A1B" d="M17.214 25.714l-1.785 3.643c0 3.072-2.429 5.5-5.5 5.5V30c2.714 0 5.928-2.214 7.285-4.286z"/>
            <circle cx="11.786" cy="17.857" r="1" fill="#000F46"/>
            <circle cx="9.929" cy="41.429" r="1" fill="#000F46"/>
            <circle cx="9.929" cy="47.5" r="1" fill="#000F46"/>
            <circle cx="5.143" cy="17.857" r="1" fill="#000F46"/>
            <path fill="#FFF" d="M6 22.5c.5 1.214 1.429 2.071 2.429 2.071 1.071 0 1.928-.857 2.428-2.071H6z"/>
        </g>
        <path fill="#000F46" d="M191.357.071C184.786.071 179.43 5.43 179.43 12v6.5l3.571 7v-7.571l1.357-4.429h4.786l.786-4.429.785 4.429h6.643l1.857 4.429v3.214c0 1.928-.857 3-2.857 3.786C196.357 27 198 28 199.643 28c2.143 0 3.714-1.357 3.714-3.5v-5.929h.072v-6.5c-.143-6.714-5.5-12-12.072-12z"/>
        <path fill="#FFF" d="M201.886 32.947l9.275-2.057.913 4.114-9.275 2.058z"/>
        <g fill="#69BE28">
            <path d="M24.071 106.286h-.285c-.072 0-.143-.072-.286-.072-.071 0-.143-.071-.214-.143-.072-.071-.143-.142-.215-.142-.071-.072-.142-.143-.142-.215-.072-.071-.072-.143-.143-.285-.072-.072-.072-.143-.072-.286v-.286c0-.357.143-.714.429-1 .071-.071.143-.143.214-.143.072-.071.143-.071.214-.143.072-.071.143-.071.286-.071a.789.789 0 0 1 .572 0c.071 0 .142.071.285.071.072 0 .143.072.215.143.071.072.142.072.214.143.286.286.428.643.428 1v.286c0 .071-.071.143-.071.286-.071.071-.071.142-.143.285-.071.072-.143.143-.143.215-.071.071-.143.142-.214.142-.071.072-.143.072-.214.143-.072.072-.143.072-.286.072-.214-.072-.286 0-.429 0z"/>
            <path fill-rule="nonzero" d="M16.929 104.857c0-.786.642-1.428 1.428-1.428.786 0 1.429.642 1.429 1.428 0 .786-.643 1.429-1.429 1.429s-1.428-.715-1.428-1.429zm-4.429 1.357c-.786-.071-1.357-.785-1.286-1.571.072-.786.786-1.357 1.572-1.286.785.072 1.357.786 1.285 1.572-.071.714-.714 1.285-1.428 1.285H12.5zm-6-2.071c-.643-.429-.857-1.286-.429-2 .429-.643 1.286-.857 2-.429.643.429.858 1.286.429 2a1.403 1.403 0 0 1-1.214.643 1.44 1.44 0 0 1-.786-.214zM2.071 99.57a1.385 1.385 0 0 1 .5-1.928c.643-.429 1.572-.143 1.929.5a1.385 1.385 0 0 1-.5 1.928c-.214.143-.5.215-.714.215-.5 0-.929-.215-1.215-.715zM.214 93.5c-.071-.786.572-1.429 1.357-1.5.786-.071 1.429.571 1.5 1.357 0 .786-.571 1.429-1.357 1.5h-.071c-.714 0-1.357-.571-1.429-1.357zm1.929-4.357a1.442 1.442 0 0 1-.714-1.857c.285-.715 1.142-1.072 1.857-.715C4 86.93 4.357 87.714 4 88.43c-.214.5-.786.857-1.286.857-.214 0-.428-.072-.571-.143zm2.928-4.929c-.5-.643-.357-1.5.215-2 .643-.5 1.5-.357 2 .215.5.642.357 1.5-.215 2a1.373 1.373 0 0 1-.857.285c-.428.072-.857-.143-1.143-.5zM10 81.286c-.143-.786.357-1.5 1.143-1.715.786-.142 1.5.358 1.643 1.143.143.786-.357 1.5-1.143 1.643h-.286c-.643.072-1.214-.428-1.357-1.071zm212.214-.5c0-.786.643-1.429 1.429-1.429s1.428.643 1.428 1.429c0 .785-.642 1.428-1.428 1.428a1.433 1.433 0 0 1-1.429-1.428zm-5.714 0c0-.786.643-1.429 1.429-1.429.785 0 1.428.643 1.428 1.429 0 .785-.643 1.428-1.428 1.428a1.433 1.433 0 0 1-1.429-1.428zm-5.714 0c0-.786.643-1.429 1.428-1.429.786 0 1.429.643 1.429 1.429 0 .785-.643 1.428-1.429 1.428a1.433 1.433 0 0 1-1.428-1.428zm-5.786 0c0-.786.643-1.429 1.429-1.429.785 0 1.428.643 1.428 1.429 0 .785-.643 1.428-1.428 1.428A1.433 1.433 0 0 1 205 80.786zm-5.714 0c0-.786.643-1.429 1.428-1.429.786 0 1.429.643 1.429 1.429 0 .785-.643 1.428-1.429 1.428a1.433 1.433 0 0 1-1.428-1.428zm-5.715 0c0-.786.643-1.429 1.429-1.429s1.429.643 1.429 1.429c0 .785-.643 1.428-1.429 1.428a1.433 1.433 0 0 1-1.429-1.428zm-5.785 0c0-.786.643-1.429 1.428-1.429.786 0 1.429.643 1.429 1.429 0 .785-.643 1.428-1.429 1.428a1.433 1.433 0 0 1-1.428-1.428zm-5.715 0c0-.786.643-1.429 1.429-1.429s1.429.643 1.429 1.429c0 .785-.643 1.428-1.429 1.428a1.433 1.433 0 0 1-1.429-1.428zm-5.714 0c0-.786.643-1.429 1.429-1.429.785 0 1.428.643 1.428 1.429 0 .785-.643 1.428-1.428 1.428a1.433 1.433 0 0 1-1.429-1.428zm-5.786 0c0-.786.643-1.429 1.429-1.429s1.429.643 1.429 1.429c0 .785-.643 1.428-1.429 1.428a1.433 1.433 0 0 1-1.429-1.428zm-5.714 0c0-.786.643-1.429 1.429-1.429.785 0 1.428.643 1.428 1.429 0 .785-.643 1.428-1.428 1.428a1.433 1.433 0 0 1-1.429-1.428zm-5.714 0c0-.786.643-1.429 1.428-1.429.786 0 1.429.643 1.429 1.429 0 .785-.643 1.428-1.429 1.428a1.433 1.433 0 0 1-1.428-1.428zm-5.786 0c0-.786.643-1.429 1.429-1.429.785 0 1.428.643 1.428 1.429 0 .785-.643 1.428-1.428 1.428a1.433 1.433 0 0 1-1.429-1.428zm-5.714 0c0-.786.643-1.429 1.428-1.429.786 0 1.429.643 1.429 1.429 0 .785-.643 1.428-1.429 1.428a1.433 1.433 0 0 1-1.428-1.428zm-5.714 0c0-.786.642-1.429 1.428-1.429.786 0 1.429.643 1.429 1.429 0 .785-.643 1.428-1.429 1.428a1.433 1.433 0 0 1-1.428-1.428zm-5.786 0c0-.786.643-1.429 1.428-1.429.786 0 1.429.643 1.429 1.429 0 .785-.643 1.428-1.429 1.428a1.433 1.433 0 0 1-1.428-1.428zm-5.714 0c0-.786.642-1.429 1.428-1.429.786 0 1.429.643 1.429 1.429 0 .785-.643 1.428-1.429 1.428a1.433 1.433 0 0 1-1.428-1.428zm-5.715 0c0-.786.643-1.429 1.429-1.429s1.428.643 1.428 1.429c0 .785-.642 1.428-1.428 1.428a1.433 1.433 0 0 1-1.429-1.428zm-5.785 0c0-.786.642-1.429 1.428-1.429.786 0 1.429.643 1.429 1.429 0 .785-.643 1.428-1.429 1.428a1.433 1.433 0 0 1-1.428-1.428zm-5.715 0c0-.786.643-1.429 1.429-1.429s1.428.643 1.428 1.429c0 .785-.642 1.428-1.428 1.428a1.433 1.433 0 0 1-1.429-1.428zm-5.714 0c0-.786.643-1.429 1.429-1.429.785 0 1.428.643 1.428 1.429 0 .785-.643 1.428-1.428 1.428a1.433 1.433 0 0 1-1.429-1.428zm-5.786 0c0-.786.643-1.429 1.429-1.429s1.428.643 1.428 1.429c0 .785-.642 1.428-1.428 1.428a1.433 1.433 0 0 1-1.429-1.428zm-5.714 0c0-.786.643-1.429 1.429-1.429.785 0 1.428.643 1.428 1.429 0 .785-.643 1.428-1.428 1.428A1.433 1.433 0 0 1 96 80.786zm-5.714 0c0-.786.643-1.429 1.428-1.429.786 0 1.429.643 1.429 1.429 0 .785-.643 1.428-1.429 1.428a1.433 1.433 0 0 1-1.428-1.428zm-5.786 0c0-.786.643-1.429 1.429-1.429.785 0 1.428.643 1.428 1.429 0 .785-.643 1.428-1.428 1.428a1.433 1.433 0 0 1-1.429-1.428zm-5.714 0c0-.786.643-1.429 1.428-1.429.786 0 1.429.643 1.429 1.429 0 .785-.643 1.428-1.429 1.428a1.433 1.433 0 0 1-1.428-1.428zm-5.715 0c0-.786.643-1.429 1.429-1.429s1.429.643 1.429 1.429c0 .785-.643 1.428-1.429 1.428a1.433 1.433 0 0 1-1.429-1.428zm-5.785 0c0-.786.643-1.429 1.428-1.429.786 0 1.429.643 1.429 1.429 0 .785-.643 1.428-1.429 1.428a1.433 1.433 0 0 1-1.428-1.428zm-5.715 0c0-.786.643-1.429 1.429-1.429s1.429.643 1.429 1.429c0 .785-.643 1.428-1.429 1.428a1.433 1.433 0 0 1-1.429-1.428zm-5.714 0c0-.786.643-1.429 1.429-1.429.785 0 1.428.643 1.428 1.429 0 .785-.643 1.428-1.428 1.428a1.433 1.433 0 0 1-1.429-1.428zm-5.786 0c0-.786.643-1.429 1.429-1.429s1.429.643 1.429 1.429c0 .785-.643 1.428-1.429 1.428a1.433 1.433 0 0 1-1.429-1.428zm-5.714 0c0-.786.643-1.429 1.429-1.429.785 0 1.428.643 1.428 1.429 0 .785-.643 1.428-1.428 1.428a1.433 1.433 0 0 1-1.429-1.428zm-5.714 0c0-.786.643-1.429 1.428-1.429.786 0 1.429.643 1.429 1.429 0 .785-.643 1.428-1.429 1.428a1.433 1.433 0 0 1-1.428-1.428zm-5.786 0c0-.786.643-1.429 1.429-1.429.785 0 1.428.643 1.428 1.429 0 .785-.643 1.428-1.428 1.428a1.433 1.433 0 0 1-1.429-1.428zm-5.714 0c0-.786.643-1.429 1.428-1.429.786 0 1.429.643 1.429 1.429 0 .785-.643 1.428-1.429 1.428a1.433 1.433 0 0 1-1.428-1.428zm-5.714 0c0-.786.642-1.429 1.428-1.429.786 0 1.429.643 1.429 1.429 0 .785-.643 1.428-1.429 1.428a1.433 1.433 0 0 1-1.428-1.428zm-5.786 0c0-.786.643-1.429 1.428-1.429.786 0 1.429.643 1.429 1.429 0 .785-.643 1.428-1.429 1.428a1.433 1.433 0 0 1-1.428-1.428z"/>
            <path d="M229.429 82.214a1.41 1.41 0 0 1-1-.428 1.41 1.41 0 0 1-.429-1c0-.357.143-.715.429-1 .5-.572 1.5-.572 2 0 .285.285.428.643.428 1s-.143.714-.428 1a1.41 1.41 0 0 1-1 .428z"/>
        </g>
        <circle cx="143.429" cy="94.786" r="58.857" fill="#009FDA"/>
        <path fill="#0075B0" fill-rule="nonzero" d="M131.929 124h-2.215v-14.143c0-.428-.285-.714-.714-.714h-3.143c-.428 0-.714.286-.714.714V124h-1.572v-6.429c0-.428-.285-.714-.714-.714h-3.143c-.428 0-.714.286-.714.714V124h-1.571v-3.214c0-.429-.286-.715-.715-.715h-3.143c-.428 0-.714.286-.714.715V124h-2.214c-.429 0-.714.286-.714.714 0 .429.285.715.714.715h3.786V127c0 .429.285.714.714.714.428 0 .714-.285.714-.714v-1.571h4.714V127c0 .429.286.714.715.714.428 0 .714-.285.714-.714v-1.571h4.714V127c0 .429.286.714.715.714.428 0 .714-.285.714-.714v-1.571H131.929c.428 0 .714-.286.714-.715a.716.716 0 0 0-.714-.714zm-17.858 0v-2.5h1.715v2.5h-1.715zm6.215 0v-5.714H122V124h-1.714zm6.214 0v-13.429h1.714V124H126.5z"/>
        <path fill="#0075B0" d="M85.857 106.929c6.429-6.143 10.357-14.786 10.357-24.358 0-5.928-1.571-11.5-4.214-16.357-4.714 8.5-7.429 18.215-7.429 28.572 0 4.143.429 8.214 1.286 12.143z"/>
        <path fill="#0075B0" fill-rule="nonzero" d="M175.357 63.857c-.143-.143-.428-.214-.643-.214-.285.071-6.5 1.5-9.571 4.571-.714.715-1.214 1.357-1.643 2.072-.214-.429-.571-.857-.929-1.215-1.928-1.928-5.714-2.785-5.857-2.785a.576.576 0 0 0-.643.214c-.142.143-.214.429-.214.643.072.143.929 3.928 2.786 5.857 1.143 1.143 2.214 1.571 3.143 1.571.214 0 .428 0 .643-.071v7c0 .429.285.714.714.714.428 0 .714-.285.714-.714v-5.643c.572.5 1.286.714 2.072.714 1.571 0 3.357-.857 5-2.5C174 71 175.429 64.786 175.5 64.5a.465.465 0 0 0-.143-.643zm-15.643 8.072c-1-1-1.714-2.786-2.071-3.929 1.214.357 2.928 1.071 3.928 2.071.858.858 1.215 1.715 1.143 2.286v.143c-.071.143-.071.286-.214.357-.571.572-1.714.143-2.786-.928zm10.215 1.142c-2 2-4.286 2.643-5.358 1.572-1.142-1.143-.5-3.286 1.572-5.357 2-2 5.786-3.357 7.714-3.857-.571 1.857-1.857 5.571-3.928 7.642zM173.071 116.214h-2.142v-1.928a5.121 5.121 0 0 0-5.143-5.143 5.121 5.121 0 0 0-5.143 5.143v1.928H158.5c-.429 0-.714.286-.714.715V127c0 .429.285.714.714.714h14.643c.428 0 .714-.285.714-.714V116.929c-.071-.358-.428-.715-.786-.715zm-14 4.786h13.215v1.929H159.07V121zm2.929-6.714a3.689 3.689 0 0 1 3.714-3.715 3.689 3.689 0 0 1 3.715 3.715v1.928h-7.5v-1.928H162zm-2.929 3.357h13.215v1.928H159.07v-1.928zm13.286 8.643h-13.214v-1.929h13.214v1.929z"/>
        <g>
            <path fill="#FFF" fill-rule="nonzero" d="M122.643 71.643v-8.929c1.786.572 3.071 2.286 3.071 4.286 0 .786.643 1.429 1.429 1.429s1.428-.643 1.428-1.429c0-3.571-2.571-6.571-5.928-7.214v-1c0-.786-.643-1.429-1.429-1.429-.785 0-1.428.643-1.428 1.429v1c-3.357.643-5.929 3.643-5.929 7.214 0 3.571 2.572 6.571 5.929 7.214v8.929c-1.786-.572-3.072-2.286-3.072-4.286 0-.786-.643-1.428-1.428-1.428-.786 0-1.429.642-1.429 1.428 0 3.572 2.572 6.572 5.929 7.214v1c0 .786.643 1.429 1.428 1.429.786 0 1.429-.643 1.429-1.429v-1c3.357-.642 5.928-3.642 5.928-7.214 0-3.571-2.571-6.571-5.928-7.214zM116.714 67c0-2 1.286-3.643 3.072-4.286v8.5A4.395 4.395 0 0 1 116.714 67zm5.929 16.071v-8.5c1.786.572 3.071 2.286 3.071 4.286 0 1.929-1.357 3.643-3.071 4.214z"/>
            <g fill="#DBE8F3">
                <path d="M134.071 82.786c-.428 0-.857-.215-1.142-.5-.5-.643-.429-1.5.214-2 2.214-1.786 3.5-4.5 3.5-7.429 0-2.857-1.286-5.571-3.5-7.428-.643-.5-.714-1.429-.214-2 .5-.643 1.428-.715 2-.215 2.928 2.357 4.571 5.857 4.571 9.643 0 3.714-1.643 7.214-4.571 9.643-.215.143-.5.286-.858.286zM108.286 82.786c-.286 0-.643-.072-.929-.286-2.928-2.357-4.571-5.857-4.571-9.643 0-3.786 1.643-7.214 4.571-9.643.643-.5 1.5-.428 2 .215.5.642.429 1.5-.214 2-2.214 1.785-3.5 4.5-3.5 7.428 0 2.857 1.286 5.572 3.5 7.429.643.5.714 1.428.214 2-.286.285-.714.5-1.071.5z"/>
            </g>
        </g>
        <g fill="#A1C5E0">
            <path d="M152 96.357h-5.714c-.429 0-.715-.286-.715-.714 0-.429.286-.714.715-.714H152c.429 0 .714.285.714.714a.716.716 0 0 1-.714.714zM140.571 96.357h-5.714c-.428 0-.714-.286-.714-.714 0-.429.286-.714.714-.714h5.714c.429 0 .715.285.715.714a.716.716 0 0 1-.715.714zM143.429 93.5c-.429 0-.715-.286-.715-.714V87.07c0-.428.286-.714.715-.714.428 0 .714.286.714.714v5.715a.716.716 0 0 1-.714.714zM143.429 104.929c-.429 0-.715-.286-.715-.715V98.5c0-.429.286-.714.715-.714.428 0 .714.285.714.714v5.714a.716.716 0 0 1-.714.715z"/>
        </g>
        <g>
            <path fill="#003665" fill-rule="nonzero" d="M233.357 127.786H214.5v-2.929c0-2.286-2-4.214-4.5-4.214h-8.286c-2.5 0-4.5 1.857-4.5 4.214v2.929h-16.5c-2.428-.215-4.428 1.571-4.428 3.714v36.714c0 .786.643 1.357 1.5 1.357h57.785c.858 0 1.5-.642 1.5-1.357v-36.571c-.071-1.857-1.571-3.643-3.714-3.857zm-34-2.929c0-1.143 1.072-2.071 2.357-2.071H210c1.286 0 2.357.928 2.357 2.071v2.929H199.43v-2.929h-.072z"/>
            <path fill="#000F46" d="M219.643 148.5H185.5l-9.214-8.571v3.928l7.857 7.286H221l7.929-7.286v-3.928z"/>
            <path fill="#FFF" d="M207.214 149.857c0 2.357-2.071 4.286-4.643 4.286-2.571 0-4.642-1.929-4.642-4.286 0-2.357 2.071-4.286 4.642-4.286 2.572 0 4.643 1.858 4.643 4.286z"/>
            <path fill="#000F46" d="M228.929 131.571c0-2.214 2.071-3.928 4.428-3.714 2.143.214 3.643 1.929 3.643 3.857v36.572c0 .785-.643 1.357-1.5 1.357h-5.143c-.857 0-1.5-.643-1.5-1.357V131.57h.072z"/>
        </g>
        <g>
            <path fill="#A1C5E0" d="M80.429 162.857c.071-.428.071-.857.071-1.357 0-7.143-5.786-12.929-12.929-12.929-3 0-5.571.858-7.642 2.572-2.143-1.572-4.786-2.572-7.643-2.572-5.286 0-9.215 2.715-11.857 7.786-2.929 5.5-9.715 9.714-15.286 9.714h-4.5c-1.786 0-2.643 1.572-2.643 3.572h69.643c-.072-3.857-3.143-6.286-7.214-6.786z"/>
            <g transform="translate(83.571 127.857)">
                <circle cx="18.5" cy="18.5" r="18.286" fill="#DBE8F3"/>
                <circle cx="18.5" cy="18.5" r="11.429" fill="#69BE28"/>
                <path fill="#FFF" d="M17.571 23.714c-.214 0-.5-.143-.571-.357l-1.929-3.143c-.214-.357-.142-.785.215-1 .357-.214.785-.143 1 .215l1.285 2.142 3.572-6.428c.214-.357.643-.5 1-.286.357.214.5.643.286 1l-4.143 7.429c-.215.285-.5.428-.715.428z"/>
            </g>
            <path fill="#C98249" d="M41.857 94.857s3-2.286 4-3.357c.929-1.071.929-3.071-.071-3.929L46.143 86c.5-.571-1.143-5-1.143-5s-3.357 1.857-4.429 2.5c-2.142 1.214-4.071 2.571-6.142 4.714l7.428 6.643z"/>
            <path fill="#FFF" d="M41.832 94.882l-2.786 3.162-7.45-6.564 2.787-3.162z"/>
            <path fill="#000F46" d="M42.786 90.071L36 86.786c-1.071-.5-1.5-1.786-1-2.857l6.929-14.215c.5-1.071 1.785-1.5 2.857-1L51.57 72c1.072.5 1.5 1.786 1 2.857l-6.928 14.214c-.5 1.072-1.786 1.5-2.857 1z"/>
            <path fill="#C98249" d="M40.429 91.143l8-8.143 1.428 5.214-6.571 5z"/>
            <path fill="#000F46" d="M63.643 98.786l8.071 25.428H85.93v9.929s-12.643 1.143-16.786 1.428c-4.286.286-7.214-2.142-9.214-7.071-1.215-3.071-9-21.429-9-21.429l12.714-8.285z"/>
            <path fill="#000F46" d="M55.214 94.929l.643-1.5-11.571 2.428-6.857 4.286 1.642-2.214-7.428-6.572S25 99.643 21.714 103.93c-4.285 5.428-1.5 14.428 6 14 3.357-.215 7.786-.5 11.5-.715 0 .5-.071.929-.071 1.429 0 5.857 0 15-.857 21.786a21.836 21.836 0 0 1-3.143 9c1.5 1.714 5.286 2.214 7.357 2.214 6.429 0 20.071-2.214 20.071-2.214V99.357l-7.357-4.428z"/>
            <path fill="#DBE8F3" d="M62.5 99.429V149.5l5.071-1.214v-47.143l-3.857-.929-1.214-.785z"/>
            <path fill="#FFF" d="M65 105.714h-5.286c-2.643 0-4.714-1.928-4.714-4.928v-13.5l10.571 8.928 2.143-2.071v8.928L65 105.714z"/>
            <path fill="#005C84" d="M65 105.714V136.5s.286 4.929 1.786 8.214l3.357 1.929c-2-4.572-2.5-8.643-2.5-8.643v-34.929L65 105.714z"/>
            <path fill="#000F46" d="M67.571 169.643v-21.429c-12.214 0-19-2.857-28.5-2.857v8.214c0 6.143 2.358 12.215 5.072 16.072H67.57z"/>
            <g>
                <g transform="translate(45 60.714)">
                    <path fill="#EBA371" d="M12.071 1.786L14 1.714c6.714-.285 11.714 4.215 12 11.143.143 3.572-.714 8.929-1.786 12.214l-.571 3.858-1 2.714v2.5a6.358 6.358 0 0 1-6.5 6.357h-3.5S10 37.5 10 35.357V34.5l-5.786-.643c-1.928-.357-3-1.357-3.071-3.643L.57 13.43C.214 6.643 5.286 2 12.071 1.786z"/>
                    <circle cx="4.214" cy="20.071" r="1.071" fill="#000F46"/>
                    <path fill="#000F46" d="M26.5 12.214C26.214 5.357 20.714.43 14 .714l-1.929.072c-5.5.214-9.928 4-11.214 8.928 3.357.5 6.429-.071 8.786-1.714C12 6.357 15.57 9.571 13.714 12.5 12 15.286 12.43 18.214 15.5 18.214h1.643c1.928 0 3.5 1.429 3.5 3.215.071 1.785-1.5 3.357-3.357 3.357h-.215l.858 1.785A4.256 4.256 0 0 0 21.786 29h1.857l1.286-3.5c1-3.214 1.714-9.714 1.571-13.286z"/>
                    <path fill="#C98249" d="M14.714 35v5.429H9.93v-6.072z"/>
                </g>
                <path fill="#FFF" d="M48.643 85.643c-.5 1.428-1.5 2.428-2.643 2.428l-.071-2.357 2.714-.071z"/>
            </g>
            <path fill="#005C84" d="M62.429 145.571h5.143v2.857h-5.143z"/>
            <path fill="#C98249" d="M38.214 74.643l1.286-.072c1 0 1.714 1.072 1.214 1.929l-2.571 4.714c-.214.429-.714.715-1.214.715l-.858-.072c-.928 0-1.571-1-1.142-1.857l2.142-4.571c.215-.5.643-.786 1.143-.786z"/>
            <path fill="#EBA371" d="M93.143 124.143c1.286 0 2.5.286 3.571 1l7.5 5.143c1.715 1.143.143 3.357-1.571 2.285-1.786-1.071-3.857-1.785-5.714-1.785H88.5l.643-6.643h4z"/>
            <path fill="#FFF" d="M85.857 124.143H90v9.93h-4.143z"/>
        </g>
        <path fill="#FFF" d="M194.214 140.214l3.929-1.214-3.929-1.143-1.214-4-1.143 4-4 1.143 4 1.214 1.143 3.929z"/>
    </g>
</svg>
