<svg xmlns="http://www.w3.org/2000/svg" width="212" height="170" viewBox="0 0 212 170">
    <g fill="none" fill-rule="nonzero">
        <circle cx="130.508" cy="80.815" r="80.815" fill="#DBE8F3"/>
        <g fill="#69BE28">
            <path d="M17.349 126.236c-.436 0-.872-.174-1.22-.523a1.721 1.721 0 0 1-.524-1.22v-.35c0-.087.087-.26.087-.348 0-.087.087-.174.175-.262.087-.087.174-.174.174-.261.087-.087.174-.175.262-.175.087-.087.174-.087.261-.174.087 0 .174-.087.349-.087.523-.087 1.133.087 1.57.436.086.087.173.174.173.261.088.088.088.175.175.262 0 .087.087.174.087.349v.348c0 .436-.174.872-.523 1.22-.174.35-.61.524-1.046.524zM193.713 138.354c0-.96.784-1.744 1.743-1.744.96 0 1.744.785 1.744 1.744s-.785 1.743-1.744 1.743a1.749 1.749 0 0 1-1.743-1.743zm-6.887 0c0-.96.784-1.744 1.743-1.744.96 0 1.744.785 1.744 1.744s-.785 1.743-1.744 1.743a1.749 1.749 0 0 1-1.743-1.743zm-6.888 0c0-.96.785-1.744 1.744-1.744s1.744.785 1.744 1.744-.785 1.743-1.744 1.743a1.749 1.749 0 0 1-1.744-1.743zm-6.887 0c0-.96.785-1.744 1.744-1.744s1.743.785 1.743 1.744-.784 1.743-1.743 1.743a1.749 1.749 0 0 1-1.744-1.743zm-6.887 0c0-.96.785-1.744 1.744-1.744s1.743.785 1.743 1.744-.784 1.743-1.743 1.743a1.749 1.749 0 0 1-1.744-1.743zm-6.887 0c0-.96.785-1.744 1.744-1.744.958 0 1.743.785 1.743 1.744s-.785 1.743-1.743 1.743a1.749 1.749 0 0 1-1.744-1.743zm-6.887 0c0-.96.784-1.744 1.743-1.744.96 0 1.744.785 1.744 1.744s-.785 1.743-1.744 1.743a1.749 1.749 0 0 1-1.743-1.743zm-6.887 0c0-.96.784-1.744 1.743-1.744.96 0 1.744.785 1.744 1.744s-.785 1.743-1.744 1.743a1.749 1.749 0 0 1-1.743-1.743zm-6.888 0c0-.96.785-1.744 1.744-1.744s1.744.785 1.744 1.744-.785 1.743-1.744 1.743a1.749 1.749 0 0 1-1.744-1.743zm-6.887 0c0-.96.785-1.744 1.744-1.744s1.743.785 1.743 1.744-.784 1.743-1.743 1.743a1.749 1.749 0 0 1-1.744-1.743zm-6.887 0c0-.96.785-1.744 1.744-1.744s1.743.785 1.743 1.744-.784 1.743-1.743 1.743a1.749 1.749 0 0 1-1.744-1.743zm-6.887 0c0-.96.784-1.744 1.743-1.744.96 0 1.744.785 1.744 1.744s-.785 1.743-1.744 1.743a1.749 1.749 0 0 1-1.743-1.743zm-6.887 0c0-.96.784-1.744 1.743-1.744.96 0 1.744.785 1.744 1.744s-.785 1.743-1.744 1.743a1.749 1.749 0 0 1-1.743-1.743zm-6.888 0c0-.96.785-1.744 1.744-1.744.96 0 1.744.785 1.744 1.744s-.785 1.743-1.744 1.743a1.749 1.749 0 0 1-1.744-1.743zm-6.887 0c0-.96.785-1.744 1.744-1.744s1.743.785 1.743 1.744-.784 1.743-1.743 1.743a1.749 1.749 0 0 1-1.744-1.743zm-6.887 0c0-.96.785-1.744 1.744-1.744s1.743.785 1.743 1.744-.784 1.743-1.743 1.743a1.749 1.749 0 0 1-1.744-1.743zm-6.887 0c0-.96.785-1.744 1.744-1.744s1.743.785 1.743 1.744-.784 1.743-1.743 1.743a1.749 1.749 0 0 1-1.744-1.743zm-6.887 0c0-.96.784-1.744 1.743-1.744.96 0 1.744.785 1.744 1.744s-.785 1.743-1.744 1.743a1.749 1.749 0 0 1-1.743-1.743zm-6.887 0c0-.96.784-1.744 1.743-1.744.96 0 1.744.785 1.744 1.744s-.785 1.743-1.744 1.743a1.749 1.749 0 0 1-1.743-1.743zm-6.888 0c0-.96.785-1.744 1.744-1.744s1.744.785 1.744 1.744-.785 1.743-1.744 1.743a1.749 1.749 0 0 1-1.744-1.743zm-6.887 0c0-.96.785-1.744 1.744-1.744s1.743.785 1.743 1.744-.784 1.743-1.743 1.743a1.749 1.749 0 0 1-1.744-1.743zm-6.887 0c0-.96.785-1.744 1.744-1.744s1.743.785 1.743 1.744-.784 1.743-1.743 1.743a1.749 1.749 0 0 1-1.744-1.743zm-6.887 0c0-.96.784-1.744 1.743-1.744.96 0 1.744.785 1.744 1.744s-.785 1.743-1.744 1.743a1.749 1.749 0 0 1-1.743-1.743zm-6.887 0c0-.96.784-1.744 1.743-1.744.96 0 1.744.785 1.744 1.744s-.785 1.743-1.744 1.743a1.749 1.749 0 0 1-1.743-1.743zm-5.318 1.57c-.96-.088-1.657-.96-1.57-1.919.088-.959.96-1.656 1.918-1.57.96.088 1.657.96 1.57 1.919-.087.872-.872 1.57-1.744 1.57 0 .086-.087.086-.174 0zm-7.149-2.355c-.785-.523-1.046-1.569-.61-2.44.523-.785 1.569-1.047 2.44-.611.785.523 1.047 1.57.524 2.441-.349.523-.872.872-1.482.872-.262 0-.61-.087-.872-.262zm-5.318-5.58c-.436-.871-.174-1.917.698-2.353.871-.436 1.917-.174 2.353.697.436.872.175 1.918-.697 2.354-.262.175-.523.175-.872.175-.61 0-1.22-.35-1.482-.872zM202.344 140.097h-.35c-.086 0-.26-.087-.348-.087-.087-.087-.174-.087-.261-.174-.088-.087-.175-.087-.262-.174a1.721 1.721 0 0 1-.523-1.221c0-.436.174-.872.523-1.22.087-.088.174-.175.262-.175.087-.087.174-.087.261-.174.087-.087.175-.087.349-.087a.963.963 0 0 1 .697 0c.087 0 .175.087.349.087s.174.087.262.174c.087.087.174.175.261.175.349.348.523.784.523 1.22 0 .436-.174.872-.523 1.22-.261.262-.697.436-1.22.436z"/>
        </g>
        <g transform="translate(48.82 9.59)">
            <path fill="#69BE28" d="M68.959 24.062H47.513L32.169 39.405v21.446c0 5.405 4.36 9.852 9.852 9.852h26.938c5.405 0 9.851-4.36 9.851-9.852V33.913c-.087-5.492-4.446-9.851-9.851-9.851z"/>
            <path fill="#3F9C35" d="M47.426 24.062L32.169 39.318h5.493c5.405 0 9.85-4.01 9.85-9.503v-5.753h-.086z"/>
            <path fill="#A1C5E0" d="M158.667.785H4.01A3.497 3.497 0 0 0 .523 4.272v7.584h161.63V4.272a3.497 3.497 0 0 0-3.486-3.487z"/>
            <circle cx="6.451" cy="6.538" r="1.918" fill="#005C84"/>
            <circle cx="12.379" cy="6.538" r="1.918" fill="#FFF"/>
            <circle cx="18.221" cy="6.538" r="1.918" fill="#69BE28"/>
            <path fill="#C98249" d="M73.144 93.282s-3.226-8.544-3.313-8.98a2.295 2.295 0 0 0-2.964-1.394 2.295 2.295 0 0 0-1.395 2.964c.087.174.697 1.743 1.307 3.574l-11.333-6.8c-4.882-2.702-9.328 2.79-5.928 6.103 2.528 2.44 8.718 8.718 8.718 8.718l.697 5.143 15.17-2.18-.96-7.148z"/>
            <path fill="#000F46" d="M130.856 92.933c.96-1.569 1.57-3.487 1.57-5.492 0-5.841-4.795-10.636-10.636-10.636-5.841 0-10.636 4.795-10.636 10.636 0 2.005.61 3.923 1.57 5.492-2.53 2.441-4.186 5.841-4.186 9.59 0 7.323 5.929 13.251 13.252 13.251s13.251-5.928 13.251-13.25c0-3.75-1.57-7.237-4.185-9.59z"/>
            <path fill="#003665" d="M112.723 101.913h-19.18c-7.758 2.964-13.512 5.666-17.348 9.066-1.133-6.102-2.005-10.635-2.005-10.635l-15.17 2.18s2.18 25.63 2.877 37.922c.436 6.8 4.62 10.462 10.113 10.81 3.4.175 6.19-1.656 7.846-4.446l2.093 13.077h45.856c1.83-9.154 3.4-17.261 5.23-29.03 1.919-11.857-5.753-22.319-20.312-28.944z"/>
            <path fill="#000F46" d="M86.22 154.918c1.134-.523 15.867-7.759 24.672-12.641 3.052-1.656 5.58-4.533 5.58-8.805 0-2.703 1.046-4.882 3.225-5.58 3.836-1.133 13.6 17.523 13.6 17.523l-12.292 14.56H81.95c0-2.354 1.743-3.837 4.272-5.057z"/>
            <path fill="#003665" d="M125.015 145.938l-5.84-20.05-6.452-23.975 7.933 2.092c9.503 2.528 13.426 8.892 15.78 16.651 1.743 5.667 5.318 18.047 6.8 24.15 1.656 7.06-2.092 15.081-10.985 15.081h-19.005v-14.036h11.77v.087z"/>
            <path fill="#FFF" d="M103.133 98.949v12.554l-3.923 3.923a5.655 5.655 0 0 1-5.666-5.667v-10.81h9.59z"/>
            <path fill="#FFF" d="M103.133 98.949v12.554l3.923 3.923a5.655 5.655 0 0 0 5.667-5.667v-10.81h-9.59z"/>
            <g transform="translate(81.077 50.564)">
                <path fill="#000F46" d="M40.713 31.646v10.462c0 5.056-2.616 8.107-7.323 8.107H17.872L33.738 34.35l5.406-6.8 1.569 4.097zM36.092 26.154c-3.4 0-5.754-2.267-5.754-5.754v-7.41C26.59 20.836 17.174 26.24 6.8 26.24v-8.892C6.8 8.718 21.97.436 21.97.436h1.743c9.328 0 16.913 7.585 16.913 18.22v8.893l-4.534-1.395z"/>
                <path fill="#C98249" d="M44.113 31.21c.087-2.79-2.267-5.056-5.144-5.056v-7.498c0-9.328-7.584-17.261-16.913-17.261-9.328 0-16.912 6.538-16.912 15.867v8.979C2.615 26.59.697 28.769.697 31.297c.088 2.441 1.918 4.447 4.447 4.882v.088l7.323 15.256a9.562 9.562 0 0 0 9.59 9.59 9.562 9.562 0 0 0 9.59-9.59l7.322-15.256c2.79-.175 5.057-2.354 5.144-5.057z"/>
                <path fill="#000F46" d="M34.349 26.154c-3.4 0-5.754-2.267-5.754-5.754v-7.41C24.846 20.836 15.43 26.24 5.056 26.24v-8.892C5.056 8.02 12.641.436 21.97.436S38.882 8.02 38.882 17.349v8.805H34.35z"/>
                <path fill="#9A6728" d="M34.61 45.072l-3.051 6.277a9.562 9.562 0 0 1-9.59 9.59v-9.59c6.626.087 10.723-2.267 12.641-6.277z"/>
                <circle cx="25.544" cy="28.421" r="1.569" fill="#5B2E3C"/>
                <circle cx="13.862" cy="28.421" r="1.569" fill="#5B2E3C"/>
                <path fill="#FFF" d="M15.43 36.528c.873 2.18 2.442 3.575 4.273 3.575 1.83 0 3.4-1.482 4.271-3.575h-8.543z"/>
            </g>
            <path fill="#C98249" d="M111.851 145.938c-2.615 0-2.702-2.005-4.795-2.005h-3.487c-2.615 0-3.574 2.354-5.754 2.354H96.16c-1.918 0-2.703 1.918-2.18 3.4h-4.882c-3.661 0-3.661 5.23 0 5.23h24.062v-8.979h-1.308z"/>
            <g fill="#A1C5E0">
                <path d="M103.133 123.882c-.523 0-.871-.349-.871-.872v-1.918c0-.523.348-.871.871-.871s.872.348.872.871v1.918a.874.874 0 0 1-.872.872zM103.133 137.22c-.523 0-.871-.348-.871-.871v-1.918c0-.523.348-.872.871-.872s.872.349.872.872v1.918a.874.874 0 0 1-.872.872zM110.718 129.636H108.8c-.523 0-.872-.349-.872-.872s.349-.872.872-.872h1.918c.523 0 .872.349.872.872s-.349.872-.872.872zM97.38 129.636h-1.918c-.524 0-.872-.349-.872-.872s.348-.872.872-.872h1.917c.524 0 .872.349.872.872s-.348.872-.872.872z"/>
                <g>
                    <path d="M100.256 124.667c-.261 0-.61-.175-.784-.436l-.96-1.657c-.26-.436-.086-.959.35-1.22.435-.262.959-.087 1.22.349l.959 1.656c.262.436.087.959-.349 1.22-.087.088-.261.088-.436.088zM106.97 136.174c-.262 0-.611-.174-.785-.436l-.96-1.656c-.26-.436-.087-.959.35-1.22.435-.262.958-.088 1.22.348l.959 1.657c.261.436.087.959-.349 1.22-.174.087-.349.087-.436.087z"/>
                    <g>
                        <path d="M108.103 126.759c-.262 0-.61-.174-.785-.436-.262-.436-.087-.959.349-1.22l1.656-.96c.436-.26.96-.087 1.22.35.262.435.088.958-.348 1.22l-1.657.959c-.174.087-.348.087-.435.087zM96.508 133.385c-.262 0-.61-.175-.785-.436-.261-.436-.087-.96.349-1.22l1.656-.96c.436-.261.96-.087 1.22.349.262.436.088.959-.348 1.22l-1.656.96c-.175.087-.262.087-.436.087z"/>
                    </g>
                </g>
                <g>
                    <path d="M98.164 126.759c-.174 0-.261 0-.436-.087l-1.656-.96c-.436-.26-.523-.784-.349-1.22.262-.436.785-.523 1.22-.348l1.657.959c.436.261.523.784.349 1.22-.175.262-.436.436-.785.436zM109.759 133.385c-.174 0-.262 0-.436-.088l-1.656-.959c-.436-.261-.523-.784-.35-1.22.262-.436.786-.523 1.221-.349l1.657.96c.436.26.523.784.349 1.22-.262.348-.523.436-.785.436z"/>
                    <g>
                        <path d="M106.01 124.667c-.174 0-.261 0-.436-.088-.436-.261-.523-.784-.348-1.22l.959-1.656c.261-.436.784-.524 1.22-.35.436.262.523.785.349 1.221l-.96 1.657c-.26.261-.522.436-.784.436zM99.297 136.174c-.174 0-.261 0-.435-.087-.436-.261-.524-.784-.35-1.22l.96-1.657c.261-.436.784-.523 1.22-.348.436.261.523.784.349 1.22l-.959 1.656c-.174.35-.436.436-.785.436z"/>
                    </g>
                </g>
            </g>
            <g>
                <path fill="#000F46" d="M68 51.523c.262-.61.436-1.22.436-1.918 0-2.44-2.005-4.533-4.533-4.533a4.502 4.502 0 0 0-4.534 4.533c0 .698.175 1.395.436 1.918a6.171 6.171 0 0 0-2.267 4.795 6.25 6.25 0 0 0 6.277 6.277 6.25 6.25 0 0 0 6.277-6.277c.175-1.918-.697-3.662-2.092-4.795z"/>
                <g transform="translate(43.59 31.385)">
                    <path fill="#FFF" d="M23.015 16.303c0-1.395-1.133-2.529-2.615-2.529V9.938c0-4.707-3.836-8.63-8.544-8.63-4.707 0-8.543 3.313-8.543 8.02v4.446c-1.482 0-2.616 1.134-2.616 2.529 0 1.394 1.134 2.44 2.616 2.44l3.661 7.672a4.78 4.78 0 0 0 4.795 4.795 4.78 4.78 0 0 0 4.795-4.795l3.662-7.671c1.569 0 2.79-1.134 2.79-2.441z"/>
                    <path fill="#000F46" d="M19.005 13.687c-1.743 0-2.877-1.133-2.877-2.877V7.062C14.21 10.985 8.631 13.687 3.4 13.687V9.241C3.4 4.533 7.236.697 11.944.697c4.707 0 8.543 3.836 8.543 8.544v4.446h-1.482z"/>
                    <path fill="#DBE8F3" d="M18.22 23.277l-1.482 3.138a4.78 4.78 0 0 1-4.794 4.795v-4.795c3.225 0 5.318-1.133 6.277-3.138z"/>
                    <circle cx="14.821" cy="14.821" r="1" fill="#000F46"/>
                    <circle cx="8.979" cy="14.821" r="1" fill="#000F46"/>
                    <path fill="#69BE28" d="M9.764 18.918c.436 1.046 1.22 1.83 2.18 1.83.959 0 1.743-.697 2.18-1.83h-4.36z"/>
                </g>
            </g>
            <g transform="translate(83.692 23.538)">
                <path fill="#009FDA" d="M.349 16.738V4.882C.349 2.528 2.267.523 4.708.523h11.856c2.354 0 4.36 1.918 4.36 4.36v11.855c0 2.354-1.919 4.36-4.36 4.36H4.708c-2.354 0-4.36-2.006-4.36-4.36z"/>
                <circle cx="13.774" cy="10.81" r="2.267" fill="#FFF"/>
                <circle cx="7.497" cy="10.81" r="2.267" fill="#FFF"/>
            </g>
            <g transform="translate(109.846 23.538)">
                <path fill="#009FDA" d="M.087 16.738V4.882c0-2.354 1.918-4.359 4.36-4.359h11.856c2.353 0 4.359 1.918 4.359 4.36v11.855c0 2.354-1.918 4.36-4.36 4.36H4.447c-2.44 0-4.359-2.006-4.359-4.36z"/>
                <circle cx="4.097" cy="10.81" r="2.267" fill="#FFF"/>
                <circle cx="16.651" cy="10.81" r="2.267" fill="#FFF"/>
                <circle cx="10.374" cy="10.81" r="2.267" fill="#FFF"/>
            </g>
            <path fill="#69BE28" d="M47.687 133.297v-9.066A3.311 3.311 0 0 1 51 120.918h9.067a3.311 3.311 0 0 1 3.312 3.313v9.066a3.311 3.311 0 0 1-3.312 3.313H51c-1.83-.087-3.313-1.569-3.313-3.313z"/>
            <circle cx="55.446" cy="128.764" r="2.267" fill="#FFF"/>
            <g fill="#A1C5E0">
                <path d="M55.446 111.154c-.523 0-.872-.349-.872-.872v-1.918c0-.523.35-.872.872-.872.523 0 .872.349.872.872v1.918a.874.874 0 0 1-.872.872zM55.446 104.092c-.523 0-.872-.348-.872-.871v-1.918c0-.524.35-.872.872-.872.523 0 .872.348.872.872v1.918c0 .523-.349.871-.872.871zM55.446 97.118c-.523 0-.872-.349-.872-.872v-1.918c0-.523.35-.872.872-.872.523 0 .872.35.872.872v1.918a.874.874 0 0 1-.872.872zM55.446 90.056c-.523 0-.872-.348-.872-.871v-1.918c0-.523.35-.872.872-.872.523 0 .872.349.872.872v1.918c0 .523-.349.871-.872.871zM55.446 83.082c-.523 0-.872-.349-.872-.872v-1.918c0-.523.35-.871.872-.871.523 0 .872.348.872.871v1.918a.874.874 0 0 1-.872.872zM55.446 76.02c-.523 0-.872-.348-.872-.871V73.23c0-.523.35-.872.872-.872.523 0 .872.349.872.872v1.918c0 .523-.349.872-.872.872zM55.446 118.128c-.523 0-.872-.349-.872-.872v-1.918c0-.523.35-.871.872-.871.523 0 .872.348.872.871v1.918c0 .523-.349.872-.872.872z"/>
            </g>
            <g fill="#A1C5E0">
                <path d="M90.405 129.636h-1.918c-.523 0-.872-.349-.872-.872s.35-.872.872-.872h1.918c.523 0 .872.349.872.872a.874.874 0 0 1-.872.872zM83.344 129.636h-1.918c-.523 0-.872-.349-.872-.872s.349-.872.872-.872h1.918c.523 0 .871.349.871.872s-.348.872-.871.872zM76.37 129.636H74.45c-.523 0-.872-.349-.872-.872s.35-.872.872-.872h1.918c.523 0 .872.349.872.872a.874.874 0 0 1-.872.872zM69.308 129.636H67.39c-.523 0-.872-.349-.872-.872s.349-.872.872-.872h1.918c.523 0 .871.349.871.872s-.348.872-.871.872z"/>
                <path d="M69.308 129.636H67.39c-.523 0-.872-.349-.872-.872s.349-.872.872-.872h1.918c.523 0 .871.349.871.872s-.348.872-.871.872z"/>
            </g>
        </g>
        <g transform="translate(0 108.103)">
            <path fill="#003665" d="M44.287 10.374L27.462.61c-2.18-1.22-4.883-.523-6.19 1.657L.872 37.574c-1.22 2.18-.523 4.882 1.656 6.19l16.826 9.764c2.18 1.22 4.882.523 6.19-1.656l20.4-35.308c1.307-2.18.523-4.882-1.657-6.19z"/>
            <path fill="#005C84" d="M35.395 11.333c-.262 0-.436-.087-.61-.174l-3.139-1.83c-.61-.35-.872-1.134-.436-1.744.349-.61 1.134-.872 1.744-.436l3.138 1.83c.61.35.872 1.134.436 1.744-.261.349-.697.61-1.133.61z"/>
            <path fill="#0075B0" d="M28.508 46.728L3.836 32.518 19.79 4.708l24.672 14.297z"/>
            <circle cx="13.6" cy="44.113" r="2.005" fill="#005C84"/>
            <path fill="#FFF" d="M21.97 26.851l-1.919 3.4c-.436.698-1.307.872-1.918.523l-3.4-1.918c-.697-.435-.871-1.307-.523-1.918l1.918-3.4c.436-.697 1.308-.871 1.918-.523l3.4 1.918c.698.35.872 1.22.523 1.918z"/>
            <path fill="#009FDA" d="M18.918 18.57l1.918-3.4c.436-.698 1.308-.873 1.918-.524l3.4 1.918c.697.436.872 1.308.523 1.918l-1.918 3.4c-.436.697-1.308.872-1.918.523l-3.4-1.918a1.334 1.334 0 0 1-.523-1.918z"/>
            <g>
                <path fill="#009FDA" d="M22.405 31.559l1.918-3.4c.436-.697 1.308-.872 1.918-.523l3.4 1.918c.697.436.872 1.308.523 1.918l-1.918 3.4c-.436.697-1.308.872-1.918.523l-3.4-1.918a1.334 1.334 0 0 1-.523-1.918z"/>
                <path fill="#FFF" d="M27.113 23.364l1.918-3.4c.436-.697 1.307-.872 1.918-.523l3.4 1.918c.697.436.872 1.308.523 1.918l-1.918 3.4c-.436.697-1.308.872-1.918.523l-3.4-1.918a1.334 1.334 0 0 1-.523-1.918z"/>
            </g>
        </g>
    </g>
</svg>
